<svg xmlns="http://www.w3.org/2000/svg" viewBox="0 0 512 512">
  <defs>
    <linearGradient id="bg" x1="0%" y1="0%" x2="100%" y2="100%">
      <stop offset="0%" stop-color="#07111f"/>
      <stop offset="55%" stop-color="#132644"/>
      <stop offset="100%" stop-color="#1d3154"/>
    </linearGradient>
    <linearGradient id="accent" x1="0%" y1="0%" x2="100%" y2="100%">
      <stop offset="0%" stop-color="#d3b066"/>
      <stop offset="100%" stop-color="#f2d692"/>
    </linearGradient>
  </defs>
  <rect width="512" height="512" fill="url(#bg)"/>
  <circle cx="256" cy="228" r="152" fill="none" stroke="rgba(118,247,255,0.14)" stroke-width="8"/>
  <path d="M256 94c-38 66-96 113-96 181 0 54 43 97 96 97s96-43 96-97c0-68-58-115-96-181z" fill="url(#accent)"/>
  <path d="M255 152c-17 37-48 61-48 100 0 27 21 48 48 48s48-21 48-48c0-39-31-63-48-100z" fill="#07111f" opacity="0.82"/>
  <text x="256" y="446" text-anchor="middle" fill="#f6f4ef" font-family="Georgia, serif" font-size="54" font-weight="700">RI</text>
</svg>
